<?xml version="1.0" encoding="UTF-8"?>
<svg width="752pt" height="752pt" version="1.1" viewBox="0 0 752 752" xmlns="http://www.w3.org/2000/svg">
 <g fill="#fff">
  <path d="m502.54 194.72c-9.5352 0.089844-18.551 4.3828-24.633 11.73l-253.09 297.12c-5.7148 6.5156-8.5742 15.051-7.9453 23.695 0.62891 8.6406 4.6992 16.672 11.297 22.293 6.5977 5.6172 15.172 8.3594 23.805 7.6055 8.6328-0.75 16.605-4.9336 22.133-11.609l253.09-297.12c5.5195-6.2969 8.3867-14.492 7.9922-22.859-0.39062-8.3672-4.0117-16.258-10.102-22.012-6.0859-5.7539-14.168-8.9258-22.547-8.8438z"/>
  <path d="m248.49 194.72c-8.2617 0.17188-16.148 3.4961-22.039 9.2891-5.8906 5.7969-9.3438 13.625-9.6484 21.887-0.30469 8.2578 2.5586 16.32 8.0078 22.535l253.09 297.12c5.5273 6.6758 13.496 10.859 22.133 11.609 8.6328 0.75391 17.207-1.9883 23.805-7.6055 6.5977-5.6211 10.664-13.652 11.297-22.293 0.62891-8.6445-2.2344-17.18-7.9453-23.695l-253.09-297.12c-6.3008-7.6133-15.73-11.93-25.609-11.727z"/>
 </g>
</svg>
