<svg width="119" height="162" viewBox="0 0 119 162" fill="none" xmlns="http://www.w3.org/2000/svg">
<path d="M7.4 161.4C4.46667 159.667 2.6 157.8 1.8 155.8C1 153.933 0.6 152.333 0.6 151C0.6 147.267 1.93333 142.2 4.6 135.8C7.4 129.4 11.0667 122.133 15.6 114C20.2667 105.733 25.4 97.2 31 88.4C26.0667 88 21.8667 87.7333 18.4 87.6C14.9333 87.4667 11.9333 87.4 9.4 87.4H2.4C3.86667 83.5333 6.4 80.8667 10 79.4C13.7333 77.8 18.1333 77 23.2 77C25.4667 77 27.8 77.1333 30.2 77.4C32.6 77.6667 35.0667 78 37.6 78.4C44.4 68.1333 51.3333 58.2 58.4 48.6C65.6 38.8667 72.2667 30.2667 78.4 22.8C84.6667 15.2 89.8667 9.46666 94 5.59999C97.8667 1.86666 101.067 -5.72205e-06 103.6 -5.72205e-06C105.067 -5.72205e-06 106.667 0.599995 108.4 1.79999C110.267 2.86666 112.2 4.4 114.2 6.4C112.867 7.46666 111.133 10.3333 109 15C107 19.5333 104.8 25.2667 102.4 32.2C100.133 39.1333 97.8667 46.7333 95.6 55C93.3333 63.2667 91.2 71.7333 89.2 80.4C87.3333 88.9333 85.8 97.0667 84.6 104.8C83.5333 112.533 83 119.333 83 125.2C83 130.267 83.5333 134.2 84.6 137C85.8 139.8 87.7333 141.2 90.4 141.2C93.8667 141.2 97.8 138.8 102.2 134C106.6 129.2 111.4 121.733 116.6 111.6L118.6 113.6C114.6 124.267 109.467 133 103.2 139.8C97.0667 146.6 90.6667 150 84 150C78.5333 150 74.5333 147.6 72 142.8C69.6 137.867 68.4 131.333 68.4 123.2C68.4 118.933 68.6667 114.267 69.2 109.2C69.8667 104.133 70.7333 98.8667 71.8 93.4C65.9333 92.4667 60.5333 91.7333 55.6 91.2C50.8 90.5333 46.3333 89.9333 42.2 89.4C35.9333 101 29.8 112.933 23.8 125.2C17.9333 137.467 12.4667 149.533 7.4 161.4ZM73.2 86.4C75.2 77.6 77.5333 68.7333 80.2 59.8C82.8667 50.7333 85.6667 42.1333 88.6 34C91.6667 25.8667 94.5333 18.7333 97.2 12.6C93.0667 15.1333 88.2667 19.6667 82.8 26.2C77.4667 32.6 71.8 40.4667 65.8 49.8C59.8 59 53.6667 69.1333 47.4 80.2C51.9333 81.1333 56.4 82.2 60.8 83.4C65.3333 84.4667 69.4667 85.4667 73.2 86.4Z" fill="#A57D5C"/>
</svg>
